<svg width="185" height="41" viewBox="0 0 185 41" fill="none" xmlns="http://www.w3.org/2000/svg">
<g clip-path="url(#clip0_3_42)">
<rect opacity="0.1" y="0.496094" width="42" height="40" rx="20" fill="white"/>
<path opacity="0.6" d="M28.9583 21.017C28.9583 20.517 28.8958 20.142 28.8333 19.7357H21.4583V22.392H25.8333C25.6771 23.5482 24.5208 25.7357 21.4583 25.7357C18.8021 25.7357 16.6458 23.5482 16.6458 20.8295C16.6458 16.4857 21.7708 14.4857 24.5208 17.142L26.6458 15.1107C25.3021 13.8607 23.5208 13.0795 21.4583 13.0795C17.1458 13.0795 13.7083 16.5482 13.7083 20.8295C13.7083 25.142 17.1458 28.5795 21.4583 28.5795C25.9271 28.5795 28.9583 25.4545 28.9583 21.017Z" fill="white"/>
</g>
<g clip-path="url(#clip1_3_42)">
<rect opacity="0.1" x="48" y="0.496094" width="42" height="40" rx="20" fill="white"/>
<path opacity="0.6" d="M75.6771 17.5795C76.3021 17.1107 76.8646 16.5482 77.3021 15.892C76.7396 16.142 76.0833 16.3295 75.4271 16.392C76.1146 15.9857 76.6146 15.3607 76.8646 14.5795C76.2396 14.9545 75.5208 15.2357 74.8021 15.392C74.1771 14.7357 73.3333 14.3607 72.3958 14.3607C70.5833 14.3607 69.1146 15.8295 69.1146 17.642C69.1146 17.892 69.1458 18.142 69.2083 18.392C66.4896 18.2357 64.0521 16.9232 62.4271 14.9545C62.1458 15.4232 61.9896 15.9857 61.9896 16.6107C61.9896 17.7357 62.5521 18.7357 63.4583 19.3295C62.9271 19.2982 62.3958 19.1732 61.9583 18.9232V18.9545C61.9583 20.5482 63.0833 21.8607 64.5833 22.1732C64.3333 22.2357 64.0208 22.2982 63.7396 22.2982C63.5208 22.2982 63.3333 22.267 63.1146 22.2357C63.5208 23.5482 64.7396 24.4857 66.1771 24.517C65.0521 25.392 63.6458 25.9232 62.1146 25.9232C61.8333 25.9232 61.5833 25.892 61.3333 25.8607C62.7708 26.7982 64.4896 27.3295 66.3646 27.3295C72.3958 27.3295 75.6771 22.3607 75.6771 18.017C75.6771 17.8607 75.6771 17.7357 75.6771 17.5795Z" fill="white"/>
</g>
<g clip-path="url(#clip2_3_42)">
<rect opacity="0.1" x="97" y="0.496094" width="40" height="40" rx="20" fill="white"/>
<path opacity="0.6" d="M117.333 17.2357C115.333 17.2357 113.74 18.8607 113.74 20.8295C113.74 22.8295 115.333 24.4232 117.333 24.4232C119.302 24.4232 120.927 22.8295 120.927 20.8295C120.927 18.8607 119.302 17.2357 117.333 17.2357ZM117.333 23.1732C116.052 23.1732 114.99 22.142 114.99 20.8295C114.99 19.5482 116.021 18.517 117.333 18.517C118.615 18.517 119.646 19.5482 119.646 20.8295C119.646 22.142 118.615 23.1732 117.333 23.1732ZM121.896 17.1107C121.896 16.642 121.521 16.267 121.052 16.267C120.583 16.267 120.208 16.642 120.208 17.1107C120.208 17.5795 120.583 17.9545 121.052 17.9545C121.521 17.9545 121.896 17.5795 121.896 17.1107ZM124.271 17.9545C124.208 16.8295 123.958 15.8295 123.146 15.017C122.333 14.2045 121.333 13.9545 120.208 13.892C119.052 13.8295 115.583 13.8295 114.427 13.892C113.302 13.9545 112.333 14.2045 111.49 15.017C110.677 15.8295 110.427 16.8295 110.365 17.9545C110.302 19.1107 110.302 22.5795 110.365 23.7357C110.427 24.8607 110.677 25.8295 111.49 26.6732C112.333 27.4857 113.302 27.7357 114.427 27.7982C115.583 27.8607 119.052 27.8607 120.208 27.7982C121.333 27.7357 122.333 27.4857 123.146 26.6732C123.958 25.8295 124.208 24.8607 124.271 23.7357C124.333 22.5795 124.333 19.1107 124.271 17.9545ZM122.771 24.9545C122.552 25.5795 122.052 26.0482 121.458 26.2982C120.521 26.6732 118.333 26.5795 117.333 26.5795C116.302 26.5795 114.115 26.6732 113.208 26.2982C112.583 26.0482 112.115 25.5795 111.865 24.9545C111.49 24.0482 111.583 21.8607 111.583 20.8295C111.583 19.8295 111.49 17.642 111.865 16.7045C112.115 16.1107 112.583 15.642 113.208 15.392C114.115 15.017 116.302 15.1107 117.333 15.1107C118.333 15.1107 120.521 15.017 121.458 15.392C122.052 15.6107 122.521 16.1107 122.771 16.7045C123.146 17.642 123.052 19.8295 123.052 20.8295C123.052 21.8607 123.146 24.0482 122.771 24.9545Z" fill="white"/>
</g>
<g clip-path="url(#clip3_3_42)">
<rect opacity="0.1" x="145" y="0.496094" width="40" height="40" rx="20" fill="white"/>
<path opacity="0.6" d="M171.333 13.8295H159.302C158.771 13.8295 158.333 14.2982 158.333 14.8607V26.8295C158.333 27.392 158.771 27.8295 159.302 27.8295H171.333C171.865 27.8295 172.333 27.392 172.333 26.8295V14.8607C172.333 14.2982 171.865 13.8295 171.333 13.8295ZM162.552 25.8295H160.49V19.1732H162.552V25.8295ZM161.521 18.2357C160.833 18.2357 160.302 17.7045 160.302 17.0482C160.302 16.392 160.833 15.8295 161.521 15.8295C162.177 15.8295 162.708 16.392 162.708 17.0482C162.708 17.7045 162.177 18.2357 161.521 18.2357ZM170.333 25.8295H168.24V22.5795C168.24 21.8295 168.24 20.8295 167.177 20.8295C166.083 20.8295 165.927 21.6732 165.927 22.5482V25.8295H163.865V19.1732H165.833V20.0795H165.865C166.146 19.5482 166.833 18.9857 167.833 18.9857C169.927 18.9857 170.333 20.392 170.333 22.1732V25.8295Z" fill="white"/>
</g>
<defs>
<clipPath id="clip0_3_42">
<rect width="42" height="40" fill="white" transform="translate(0 0.496094)"/>
</clipPath>
<clipPath id="clip1_3_42">
<rect width="42" height="40" fill="white" transform="translate(48 0.496094)"/>
</clipPath>
<clipPath id="clip2_3_42">
<rect width="40" height="40" fill="white" transform="translate(97 0.496094)"/>
</clipPath>
<clipPath id="clip3_3_42">
<rect width="40" height="40" fill="white" transform="translate(145 0.496094)"/>
</clipPath>
</defs>
</svg>
