<svg width="108" height="19" viewBox="0 0 108 19" fill="none" xmlns="http://www.w3.org/2000/svg">
<path d="M15.6248 9.83795C15.6248 9.33795 15.5623 8.96295 15.4998 8.5567H8.12476V11.213H12.4998C12.3435 12.3692 11.1873 14.5567 8.12476 14.5567C5.46851 14.5567 3.31226 12.3692 3.31226 9.65045C3.31226 5.3067 8.43726 3.3067 11.1873 5.96295L13.3123 3.9317C11.9685 2.6817 10.1873 1.90045 8.12476 1.90045C3.81226 1.90045 0.374756 5.3692 0.374756 9.65045C0.374756 13.963 3.81226 17.4005 8.12476 17.4005C12.5935 17.4005 15.6248 14.2755 15.6248 9.83795Z" fill="#3B3B3B"/>
<path d="M46.3435 6.40045C46.9685 5.9317 47.531 5.3692 47.9685 4.71295C47.406 4.96295 46.7498 5.15045 46.0935 5.21295C46.781 4.8067 47.281 4.1817 47.531 3.40045C46.906 3.77545 46.1873 4.0567 45.4685 4.21295C44.8435 3.5567 43.9998 3.1817 43.0623 3.1817C41.2498 3.1817 39.781 4.65045 39.781 6.46295C39.781 6.71295 39.8123 6.96295 39.8748 7.21295C37.156 7.0567 34.7185 5.7442 33.0935 3.77545C32.8123 4.2442 32.656 4.8067 32.656 5.4317C32.656 6.5567 33.2185 7.5567 34.1248 8.15045C33.5935 8.1192 33.0623 7.9942 32.6248 7.7442V7.77545C32.6248 9.3692 33.7498 10.6817 35.2498 10.9942C34.9998 11.0567 34.6873 11.1192 34.406 11.1192C34.1873 11.1192 33.9998 11.088 33.781 11.0567C34.1873 12.3692 35.406 13.3067 36.8435 13.338C35.7185 14.213 34.3123 14.7442 32.781 14.7442C32.4998 14.7442 32.2498 14.713 31.9998 14.6817C33.4373 15.6192 35.156 16.1505 37.031 16.1505C43.0623 16.1505 46.3435 11.1817 46.3435 6.83795C46.3435 6.6817 46.3435 6.5567 46.3435 6.40045Z" fill="#3B3B3B"/>
<path d="M70.9998 6.0567C68.9998 6.0567 67.406 7.6817 67.406 9.65045C67.406 11.6505 68.9998 13.2442 70.9998 13.2442C72.9685 13.2442 74.5935 11.6505 74.5935 9.65045C74.5935 7.6817 72.9685 6.0567 70.9998 6.0567ZM70.9998 11.9942C69.7185 11.9942 68.656 10.963 68.656 9.65045C68.656 8.3692 69.6873 7.33795 70.9998 7.33795C72.281 7.33795 73.3123 8.3692 73.3123 9.65045C73.3123 10.963 72.281 11.9942 70.9998 11.9942ZM75.5623 5.9317C75.5623 5.46295 75.1873 5.08795 74.7185 5.08795C74.2498 5.08795 73.8748 5.46295 73.8748 5.9317C73.8748 6.40045 74.2498 6.77545 74.7185 6.77545C75.1873 6.77545 75.5623 6.40045 75.5623 5.9317ZM77.9373 6.77545C77.8748 5.65045 77.6248 4.65045 76.8123 3.83795C75.9998 3.02545 74.9998 2.77545 73.8748 2.71295C72.7185 2.65045 69.2498 2.65045 68.0935 2.71295C66.9685 2.77545 65.9998 3.02545 65.156 3.83795C64.3435 4.65045 64.0935 5.65045 64.031 6.77545C63.9685 7.9317 63.9685 11.4005 64.031 12.5567C64.0935 13.6817 64.3435 14.6505 65.156 15.4942C65.9998 16.3067 66.9685 16.5567 68.0935 16.6192C69.2498 16.6817 72.7185 16.6817 73.8748 16.6192C74.9998 16.5567 75.9998 16.3067 76.8123 15.4942C77.6248 14.6505 77.8748 13.6817 77.9373 12.5567C77.9998 11.4005 77.9998 7.9317 77.9373 6.77545ZM76.4373 13.7755C76.2185 14.4005 75.7185 14.8692 75.1248 15.1192C74.1873 15.4942 71.9998 15.4005 70.9998 15.4005C69.9685 15.4005 67.781 15.4942 66.8748 15.1192C66.2498 14.8692 65.781 14.4005 65.531 13.7755C65.156 12.8692 65.2498 10.6817 65.2498 9.65045C65.2498 8.65045 65.156 6.46295 65.531 5.52545C65.781 4.9317 66.2498 4.46295 66.8748 4.21295C67.781 3.83795 69.9685 3.9317 70.9998 3.9317C71.9998 3.9317 74.1873 3.83795 75.1248 4.21295C75.7185 4.4317 76.1873 4.9317 76.4373 5.52545C76.8123 6.46295 76.7185 8.65045 76.7185 9.65045C76.7185 10.6817 76.8123 12.8692 76.4373 13.7755Z" fill="#3B3B3B"/>
<path d="M107 2.65045H94.9685C94.4373 2.65045 93.9998 3.1192 93.9998 3.6817V15.6505C93.9998 16.213 94.4373 16.6505 94.9685 16.6505H107C107.531 16.6505 108 16.213 108 15.6505V3.6817C108 3.1192 107.531 2.65045 107 2.65045ZM98.2185 14.6505H96.156V7.9942H98.2185V14.6505ZM97.1873 7.0567C96.4998 7.0567 95.9685 6.52545 95.9685 5.8692C95.9685 5.21295 96.4998 4.65045 97.1873 4.65045C97.8435 4.65045 98.3748 5.21295 98.3748 5.8692C98.3748 6.52545 97.8435 7.0567 97.1873 7.0567ZM106 14.6505H103.906V11.4005C103.906 10.6505 103.906 9.65045 102.844 9.65045C101.75 9.65045 101.594 10.4942 101.594 11.3692V14.6505H99.531V7.9942H101.5V8.90045H101.531C101.812 8.3692 102.5 7.8067 103.5 7.8067C105.594 7.8067 106 9.21295 106 10.9942V14.6505Z" fill="#3B3B3B"/>
</svg>
